<?xml version="1.0" encoding="utf-8"?>
<!-- Generator: Adobe Illustrator 25.4.1, SVG Export Plug-In . SVG Version: 6.00 Build 0)  -->
<svg version="1.1" id="Слой_1" xmlns="http://www.w3.org/2000/svg" xmlns:xlink="http://www.w3.org/1999/xlink" x="0px" y="0px"
	 viewBox="0 0 180.6 145.7" style="enable-background:new 0 0 180.6 145.7;" xml:space="preserve">
<style type="text/css">
	.st0{fill:none;}
	.st1{fill:#163683;}
	.st2{fill:#FFFFFF;}
	.st3{fill:#FFC20F;}
</style>
<rect x="-28.1" y="-17.3" class="st0" width="236.9" height="177.9"/>
<path class="st1" d="M103.7,99.9c21.4-23.9,30.6-40.2,41.6-72L132,4.8c-31.4-6.6-50.1-6.3-83.1,0L35.5,27.9
	c10,30.4,19.6,46.6,41.5,71.9L103.7,99.9z"/>
<path class="st2" d="M43.9,28.8L43.9,28.8c7.5,23.5,20,45.1,36.6,63.3h19.8c16.6-18.3,29-39.9,36.6-63.3l0,0L127,11.6l0,0
	c-24.1-5.2-49-5.2-73.1,0l0,0L43.9,28.8z"/>
<path class="st1" d="M55.5,13.9c23-4.9,46.8-4.9,69.8,0l8.8,15.2c-7.3,22.4-19.2,43-34.9,60.5H81.6C65.9,72.1,54,51.5,46.7,29.1
	L55.5,13.9z"/>
<path class="st3" d="M108.9,45.3L95.4,77.6h-10L72,45.3l1.5,0.3l9.7,4.7l7.3,18.2l7.3-18.2l9.7-4.7L108.9,45.3z M68.8,34.4l-1.5-3.6
	l2-3.5h-7.6l-2.6,4.6l4,9.7L85.9,46l-3.8-9L68.8,34.4z M111.5,27.2l2,3.5l-1.5,3.7L98.7,37L95,45.9l22.8-4.4l4-9.7l-2.6-4.6
	L111.5,27.2z M103.8,22.1h-1.7V21h3c0.2,0,0.4-0.2,0.4-0.3s-0.1-0.3-0.4-0.3h-3.6v2.8h-1.6v-4.1h5.2c1.1,0,1.9,0.6,1.9,1.4
	s-0.6,1.4-1.4,1.4h-0.3l1.7,1.2h-1.7L103.8,22.1L103.8,22.1z M116.8,23.2v-4.1h-1.3l-2.7,2.2l-2.7-2.2h-1.4v4.1h1.6V21l2.4,2l2.4-2
	v2.2H116.8z M98.2,21.2c0.1,0.6-0.3,1.3-0.8,1.5c-2,0.8-4.2,0.8-6.2,0c-0.6-0.3-0.9-0.9-0.8-1.5c-0.1-0.6,0.3-1.3,0.8-1.5l0,0
	c1-0.5,2-0.7,3.1-0.6c1.1-0.1,2.1,0.1,3.1,0.6C97.9,20,98.3,20.5,98.2,21.2L98.2,21.2z M96.6,21.2c0-0.3-0.2-0.6-0.5-0.7
	c-0.6-0.2-1.2-0.2-1.9-0.2c-0.6,0-1.3,0-1.9,0.2c-0.3,0.1-0.5,0.4-0.5,0.7c0,0.3,0.2,0.6,0.5,0.7l0,0c0.6,0.2,1.2,0.2,1.9,0.2
	c0.6,0,1.3,0,1.9-0.2C96.5,21.8,96.6,21.5,96.6,21.2L96.6,21.2z M88.5,21h-4.9v-0.6h5.3v-1.3H82v4.1h1.6V22h4.9V21z M67.9,22.1
	l1.5,1.1h1.8L69.5,22h0.3c0.8-0.1,1.3-0.7,1.3-1.4c0-0.9-0.8-1.4-1.9-1.4H64v4.1h1.6v-2.9h3.6c0.2,0,0.3,0.1,0.4,0.2
	s-0.1,0.3-0.3,0.4c-0.1,0-0.1,0-0.2,0h-3v1.1H67.9L67.9,22.1z M80.1,20.2v-1h-7v4.1h7v-1h-5.5v-0.5h5.1v-0.9h-5.1v-0.5L80.1,20.2z"
	/>
<path class="st2" d="M136.4,118.2l5.2,3.8h6l-5.8-4.2h1.1c2.6-0.2,4.6-2.3,4.6-4.8c0-2.9-2.6-4.8-6.5-4.9h-17.7v13.9h5.3v-9.6h12.2
	c0.8,0,1.3,0.5,1.3,1s-0.4,1-1.3,1h-10.2v3.8L136.4,118.2L136.4,118.2z"/>
<polygon class="st2" points="180.6,122 180.6,108.2 176.1,108.2 167,115.6 158,108.2 153.4,108.2 153.4,122 158.8,122 158.8,114.5 
	167.1,121.4 175.4,114.5 175.4,122 "/>
<path class="st2" d="M115.1,109.8c-2.3-1.3-6-2-10.5-2c-5.8,0-8.9,1.1-10.5,2l0,0c-2,1.1-2.8,2.6-2.8,5.3c0,2.6,0.8,4.1,2.8,5.3
	c2.3,1.3,5.9,2,10.5,2c4.6,0,8.2-0.7,10.5-2c2-1.1,2.8-2.6,2.8-5.3C117.9,112.5,117.1,110.9,115.1,109.8z M111,117.4
	c-2.1,0.5-4.2,0.8-6.4,0.7c-2.1,0.1-4.3-0.1-6.3-0.7l0,0c-1.3-0.5-1.9-1.9-1.4-3.3c0.3-0.7,0.8-1.2,1.4-1.4c2.1-0.6,4.2-0.8,6.3-0.7
	c2.2-0.1,4.3,0.2,6.4,0.7c1.3,0.5,1.9,1.9,1.4,3.3C112.1,116.7,111.6,117.2,111,117.4z"/>
<polygon class="st2" points="84.6,114.2 67.8,114.2 67.8,112.3 85.9,112.3 85.9,108.2 62.5,108.2 62.5,122 67.8,122 67.8,117.9 
	84.6,117.9 "/>
<path class="st2" d="M13.2,118.2l5.2,3.8h6l-5.8-4.2h1.1c2.6-0.2,4.6-2.3,4.6-4.8c0-2.9-2.6-4.8-6.5-4.9H0v13.9h5.3v-9.6h12.2
	c0.6-0.1,1.2,0.3,1.3,1c0,0,0,0,0,0.1c0,0.5-0.4,1-1.3,1H7.4v3.8H13.2L13.2,118.2z"/>
<polygon class="st2" points="55.4,111.7 55.4,108.2 31.6,108.2 31.6,122 55.4,122 55.4,118.5 36.8,118.5 36.8,116.7 54.1,116.7 
	54.1,113.5 36.8,113.5 36.8,111.7 "/>
<path class="st2" d="M14.3,132.5l-0.4-0.8h-2.3l-0.4,0.8h-0.7l1.9-3.5h0.8l1.9,3.5H14.3z M11.8,131.2h1.8l-0.9-1.7L11.8,131.2z"/>
<path class="st2" d="M19.6,132.5c-0.7,0-0.9-0.3-0.9-0.9V129h0.7v2.4c0,0.3,0.2,0.5,0.5,0.5h1.6c0.4,0,0.5-0.1,0.5-0.5V129h0.7v2.6
	c0,0.7-0.3,0.9-0.9,0.9H19.6z"/>
<path class="st2" d="M29.9,129v0.6h-1.6v2.9h-0.7v-2.9h-1.6V129H29.9z"/>
<path class="st2" d="M34.3,132.5c-0.7,0-0.9-0.3-0.9-0.9v-1.7c0-0.7,0.3-0.9,0.9-0.9h2.3c0.7,0,0.9,0.3,0.9,0.9v1.7
	c0,0.7-0.3,0.9-0.9,0.9H34.3z M36.3,131.9c0.3,0,0.5-0.2,0.5-0.5V130c0-0.3-0.2-0.5-0.5-0.5h-1.8c-0.3,0-0.5,0.1-0.5,0.5v1.4
	c0,0.3,0.2,0.5,0.5,0.5H36.3z"/>
<path class="st2" d="M45,129h0.6v3.5H45V130l-1.5,1.8h-0.3l-1.5-1.8v2.5h-0.7V129h0.6l1.7,2.2L45,129z"/>
<path class="st2" d="M50,132.5c-0.7,0-0.9-0.3-0.9-0.9v-1.7c0-0.7,0.3-0.9,0.9-0.9h2.3c0.7,0,0.9,0.3,0.9,0.9v1.7
	c0,0.7-0.3,0.9-0.9,0.9H50z M52.1,131.9c0.3,0,0.5-0.2,0.5-0.5V130c0-0.3-0.2-0.5-0.5-0.5h-1.8c-0.3,0-0.5,0.1-0.5,0.5v1.4
	c0,0.3,0.2,0.5,0.5,0.5H52.1z"/>
<path class="st2" d="M60.7,129v0.6h-1.6v2.9h-0.7v-2.9h-1.6V129H60.7z"/>
<path class="st2" d="M64.2,129h0.7v3.5h-0.7V129z"/>
<path class="st2" d="M72.2,129h0.7l-1.9,3.5h-0.6l-1.9-3.5h0.8l1.5,2.8L72.2,129z"/>
<path class="st2" d="M77,132h2.8v0.5h-3.6V129h3.5v0.5H77v0.9h2.7v0.5H77L77,132z"/>
<path class="st2" d="M87.7,132.5c-0.7,0-0.9-0.3-0.9-0.9v-1.7c0-0.7,0.3-0.9,0.9-0.9h2.1c0.7,0,0.9,0.3,0.9,0.9v0.3h-0.7V130
	c0-0.3-0.2-0.5-0.5-0.5h-1.7c-0.3,0-0.5,0.2-0.5,0.5v1.4c0,0.3,0.2,0.5,0.5,0.5h1.7c0.3,0,0.5-0.2,0.5-0.5V131h0.7v0.4
	c0,0.7-0.3,0.9-0.9,0.9L87.7,132.5z"/>
<path class="st2" d="M95.3,132.5c-0.7,0-0.9-0.3-0.9-0.9v-1.7c0-0.7,0.3-0.9,0.9-0.9h2.2c0.7,0,0.9,0.3,0.9,0.9v1.7
	c0,0.7-0.3,0.9-0.9,0.9H95.3z M97.3,131.9c0.3,0,0.5-0.2,0.5-0.5V130c0-0.3-0.2-0.5-0.5-0.5h-1.8c-0.3,0-0.5,0.1-0.5,0.5v1.4
	c0,0.3,0.2,0.5,0.5,0.5H97.3z"/>
<path class="st2" d="M105.4,129h0.7v3.5h-0.5l-2.8-2.7v2.7h-0.8V129h0.6l2.8,2.6V129z"/>
<path class="st2" d="M109.5,131.5h0.7v0.2c0,0.3,0.1,0.3,0.3,0.3h2c0.3,0,0.3-0.1,0.3-0.3v-0.3c0-0.3-0.1-0.3-0.3-0.3l-2.2-0.2
	c-0.5,0-0.8-0.3-0.8-0.8v-0.5c-0.1-0.3,0.2-0.7,0.5-0.8c0.1,0,0.2,0,0.2,0h2.4c0.3-0.1,0.7,0.2,0.8,0.5c0,0.1,0,0.2,0,0.2v0.3h-0.7
	v-0.1c0-0.3-0.1-0.3-0.3-0.3h-1.8c-0.3,0-0.3,0.1-0.3,0.3v0.2c0,0.3,0.1,0.3,0.3,0.3l2.2,0.2c0.5,0,0.8,0.3,0.8,0.8v0.6
	c0.1,0.3-0.2,0.7-0.5,0.8c-0.1,0-0.2,0-0.2,0h-2.5c-0.3,0.1-0.7-0.2-0.8-0.5c0-0.1,0-0.2,0-0.2L109.5,131.5z"/>
<path class="st2" d="M120.9,129v0.6h-1.6v2.9h-0.7v-2.9h-1.6V129H120.9z"/>
<path class="st2" d="M128.4,132.5h-0.8l-1-1.3h-1.5v1.3h-0.7V129h3c0.6,0,0.8,0.3,0.8,0.8v0.5c0,0.6-0.3,0.8-0.8,0.8h-0.1
	L128.4,132.5z M125.1,129.5v1.3h2.1c0.3,0,0.4-0.1,0.4-0.4V130c0-0.3-0.1-0.4-0.4-0.4L125.1,129.5z"/>
<path class="st2" d="M132.9,132.5c-0.7,0-0.9-0.3-0.9-0.9V129h0.7v2.4c0,0.3,0.2,0.5,0.5,0.5h1.6c0.3,0,0.5-0.1,0.5-0.5V129h0.7v2.6
	c0,0.7-0.3,0.9-0.9,0.9H132.9z"/>
<path class="st2" d="M140.4,132.5c-0.7,0-0.9-0.3-0.9-0.9v-1.7c0-0.7,0.3-0.9,0.9-0.9h2.1c0.7,0,0.9,0.3,0.9,0.9v0.3h-0.7V130
	c0-0.3-0.2-0.5-0.5-0.5h-1.7c-0.3,0-0.5,0.2-0.5,0.5v1.4c0,0.3,0.2,0.5,0.5,0.5h1.7c0.3,0,0.5-0.2,0.5-0.5V131h0.7v0.4
	c0,0.7-0.3,0.9-0.9,0.9L140.4,132.5z"/>
<path class="st2" d="M150.8,129v0.6h-1.6v2.9h-0.7v-2.9H147V129H150.8z"/>
<path class="st2" d="M154.4,129h0.7v3.5h-0.7V129z"/>
<path class="st2" d="M159.5,132.5c-0.7,0-0.9-0.3-0.9-0.9v-1.7c0-0.7,0.3-0.9,0.9-0.9h2.2c0.7,0,0.9,0.3,0.9,0.9v1.7
	c0,0.7-0.3,0.9-0.9,0.9H159.5z M161.5,131.9c0.3,0,0.5-0.2,0.5-0.5V130c0-0.3-0.2-0.5-0.5-0.5h-1.8c-0.3,0-0.5,0.1-0.5,0.5v1.4
	c0,0.3,0.2,0.5,0.5,0.5H161.5z"/>
<path class="st2" d="M169.6,129h0.7v3.5h-0.5l-2.8-2.7v2.7h-0.7V129h0.6l2.8,2.6L169.6,129L169.6,129z"/>
</svg>
