<?xml version="1.0" encoding="utf-8"?>
<!-- Generator: Adobe Illustrator 25.4.1, SVG Export Plug-In . SVG Version: 6.00 Build 0)  -->
<svg version="1.1" id="Слой_1" xmlns="http://www.w3.org/2000/svg" xmlns:xlink="http://www.w3.org/1999/xlink" x="0px" y="0px"
	 viewBox="0 0 216.2 145.7" style="enable-background:new 0 0 216.2 145.7;" xml:space="preserve">
<style type="text/css">
	.st0{fill:none;}
	.st1{fill:#163683;}
	.st2{fill:#FFFFFF;}
	.st3{fill:#FFC20F;}
</style>
<rect x="-33.6" y="-33.6" class="st0" width="283.5" height="212.9"/>
<path class="st1" d="M121.4,99.9C142.8,76,152,59.7,163,27.9L149.7,4.8c-31.4-6.6-50.1-6.3-83.1,0L53.2,27.9
	c10,30.4,19.6,46.6,41.5,71.9L121.4,99.9z"/>
<path class="st2" d="M61.6,28.8L61.6,28.8c7.5,23.5,20,45.1,36.6,63.3H118c16.6-18.3,29-39.9,36.6-63.3l0,0l-9.9-17.2l0,0
	c-24.1-5.2-49-5.2-73.1,0l0,0L61.6,28.8z"/>
<path class="st1" d="M73.2,13.9c23-4.9,46.8-4.9,69.8,0l8.8,15.2c-7.3,22.4-19.2,43-34.9,60.5H99.3C83.6,72.1,71.7,51.5,64.4,29.1
	L73.2,13.9z"/>
<path class="st3" d="M126.6,45.3l-13.5,32.3h-10L89.7,45.3l1.5,0.3l9.7,4.7l7.3,18.2l7.3-18.2l9.7-4.7L126.6,45.3z M86.5,34.4
	L85,30.8l2-3.5h-7.6l-2.6,4.6l4,9.7l22.8,4.4L99.8,37L86.5,34.4z M129.2,27.2l2,3.5l-1.5,3.7L116.4,37l-3.7,8.9l22.8-4.4l4-9.7
	l-2.6-4.6L129.2,27.2z M121.5,22.1h-1.7V21h3c0.2,0,0.4-0.2,0.4-0.3s-0.1-0.3-0.4-0.3h-3.6v2.8h-1.6v-4.1h5.2c1.1,0,1.9,0.6,1.9,1.4
	c0,0.8-0.6,1.4-1.4,1.4h-0.3l1.7,1.2H123L121.5,22.1L121.5,22.1z M134.5,23.2v-4.1h-1.3l-2.7,2.2l-2.7-2.2h-1.4v4.1h1.6V21l2.4,2
	l2.4-2v2.2L134.5,23.2z M115.9,21.2c0.1,0.6-0.3,1.3-0.8,1.5c-2,0.8-4.2,0.8-6.2,0c-0.6-0.3-0.9-0.9-0.8-1.5
	c-0.1-0.6,0.3-1.3,0.8-1.5l0,0c1-0.5,2-0.7,3.1-0.6c1.1-0.1,2.1,0.1,3.1,0.6C115.6,20,116,20.5,115.9,21.2L115.9,21.2z M114.3,21.2
	c0-0.3-0.2-0.6-0.5-0.7c-0.6-0.2-1.2-0.2-1.9-0.2c-0.6,0-1.3,0-1.9,0.2c-0.3,0.1-0.5,0.4-0.5,0.7c0,0.3,0.2,0.6,0.5,0.7l0,0
	c0.6,0.2,1.2,0.2,1.9,0.2c0.6,0,1.3,0,1.9-0.2C114.2,21.8,114.3,21.5,114.3,21.2L114.3,21.2z M106.2,21h-4.9v-0.6h5.3v-1.3h-6.9v4.1
	h1.6V22h4.9L106.2,21z M85.6,22.1l1.5,1.1h1.8L87.2,22h0.3c0.8-0.1,1.3-0.7,1.3-1.4c0-0.9-0.8-1.4-1.9-1.4h-5.2v4.1h1.6v-2.9h3.6
	c0.2,0,0.3,0.1,0.4,0.2S87.2,20.9,87,21c-0.1,0-0.1,0-0.2,0h-3v1.1L85.6,22.1L85.6,22.1z M97.8,20.2v-1h-7v4.1h7v-1h-5.5v-0.5h5.1
	v-0.9h-5.1v-0.5L97.8,20.2z"/>
<path class="st1" d="M163.3,128.6l6.2,4.6h7.2l-7-5h1.3c3.1-0.2,5.5-2.7,5.5-5.8c0-3.5-3.1-5.8-7.8-5.9h-21.2v16.6h6.4v-11.5h14.6
	c1,0,1.5,0.6,1.5,1.2s-0.5,1.2-1.5,1.2h-12.2v4.5L163.3,128.6L163.3,128.6z"/>
<polygon class="st1" points="216.2,133.2 216.2,116.6 210.8,116.6 199.9,125.5 189.1,116.6 183.6,116.6 183.6,133.2 190.1,133.2 
	190.1,124.2 200,132.4 209.9,124.2 209.9,133.2 "/>
<path class="st1" d="M137.8,118.6c-2.8-1.6-7.2-2.4-12.6-2.4c-6.9,0-10.6,1.3-12.6,2.4l0,0c-2.4,1.3-3.4,3.1-3.4,6.3
	c0,3.1,0.9,4.9,3.4,6.3c2.8,1.6,7.1,2.4,12.6,2.4s9.8-0.8,12.6-2.4c2.4-1.3,3.3-3.1,3.3-6.3C141.1,121.8,140.1,119.9,137.8,118.6z
	 M132.8,127.7c-2.5,0.6-5,0.9-7.6,0.8c-2.5,0.1-5.1-0.1-7.5-0.8l0,0c-1.5-0.6-2.3-2.3-1.7-3.9c0.3-0.8,0.9-1.4,1.7-1.7
	c2.5-0.7,5-0.9,7.5-0.8c2.6-0.1,5.1,0.2,7.6,0.8c1.5,0.6,2.3,2.3,1.7,3.9C134.2,126.8,133.6,127.4,132.8,127.7z"/>
<polygon class="st1" points="101.2,123.8 81.2,123.8 81.2,121.6 102.8,121.6 102.8,116.6 74.8,116.6 74.8,133.2 81.2,133.2 
	81.2,128.3 101.2,128.3 "/>
<path class="st1" d="M15.8,128.6l6.2,4.6h7.2l-7-5h1.3c3.1-0.2,5.5-2.7,5.5-5.8c0-3.5-3.1-5.8-7.8-5.9H0v16.6h6.4v-11.5H21
	c0.7-0.1,1.4,0.4,1.5,1.2c0,0,0,0,0,0.1c0,0.6-0.5,1.2-1.5,1.2H8.9v4.5L15.8,128.6L15.8,128.6z"/>
<polygon class="st1" points="66.3,120.8 66.3,116.6 37.8,116.6 37.8,133.2 66.3,133.2 66.3,129 44.1,129 44.1,126.8 64.7,126.8 
	64.7,123 44.1,123 44.1,120.8 "/>
<path class="st1" d="M17.1,145.7l-0.5-0.9h-2.8l-0.5,0.9h-0.8l2.3-4.2h0.9l2.3,4.2H17.1z M14.1,144.2h2.2l-1.1-2L14.1,144.2z"/>
<path class="st1" d="M23.4,145.7c-0.8,0-1.1-0.3-1.1-1.1v-3.1h0.8v2.9c0,0.4,0.2,0.6,0.6,0.6h1.9c0.5,0,0.6-0.1,0.6-0.6v-2.9H27v3.1
	c0,0.8-0.3,1.1-1.1,1.1H23.4z"/>
<path class="st1" d="M35.8,141.5v0.7h-1.9v3.5h-0.8v-3.5h-1.9v-0.7H35.8z"/>
<path class="st1" d="M41.1,145.7c-0.8,0-1.1-0.3-1.1-1.1v-2c0-0.8,0.3-1.1,1.1-1.1h2.7c0.8,0,1.1,0.3,1.1,1.1v2
	c0,0.8-0.3,1.1-1.1,1.1H41.1z M43.5,145c0.4,0,0.6-0.2,0.6-0.6v-1.7c0-0.4-0.2-0.6-0.6-0.6h-2.1c-0.4,0-0.6,0.1-0.6,0.6v1.7
	c0,0.4,0.2,0.6,0.6,0.6H43.5z"/>
<path class="st1" d="M53.9,141.5h0.7v4.2h-0.8v-3l-1.8,2.2h-0.4l-1.8-2.2v3h-0.8v-4.2h0.7l2,2.6L53.9,141.5z"/>
<path class="st1" d="M59.9,145.7c-0.8,0-1.1-0.3-1.1-1.1v-2c0-0.8,0.3-1.1,1.1-1.1h2.7c0.8,0,1.1,0.3,1.1,1.1v2
	c0,0.8-0.3,1.1-1.1,1.1H59.9z M62.3,145c0.4,0,0.6-0.2,0.6-0.6v-1.7c0-0.4-0.2-0.6-0.6-0.6h-2.1c-0.4,0-0.6,0.1-0.6,0.6v1.7
	c0,0.4,0.2,0.6,0.6,0.6H62.3z"/>
<path class="st1" d="M72.6,141.5v0.7h-1.9v3.5h-0.8v-3.5h-1.9v-0.7H72.6z"/>
<path class="st1" d="M76.8,141.5h0.8v4.2h-0.8V141.5z"/>
<path class="st1" d="M86.4,141.5h0.8l-2.3,4.2h-0.7l-2.3-4.2h0.9l1.8,3.4L86.4,141.5z"/>
<path class="st1" d="M92.2,145.1h3.4v0.6h-4.3v-4.2h4.2v0.6h-3.4v1.1h3.2v0.6h-3.1L92.2,145.1z"/>
<path class="st1" d="M105,145.7c-0.8,0-1.1-0.3-1.1-1.1v-2c0-0.8,0.4-1.1,1.1-1.1h2.5c0.8,0,1.1,0.3,1.1,1.1v0.4h-0.8v-0.3
	c0-0.4-0.2-0.6-0.6-0.6h-2c-0.4,0-0.6,0.2-0.6,0.6v1.7c0,0.4,0.2,0.6,0.6,0.6h2c0.4,0,0.6-0.2,0.6-0.6v-0.4h0.8v0.5
	c0,0.8-0.4,1.1-1.1,1.1L105,145.7z"/>
<path class="st1" d="M114,145.7c-0.8,0-1.1-0.3-1.1-1.1v-2c0-0.8,0.4-1.1,1.1-1.1h2.6c0.8,0,1.1,0.3,1.1,1.1v2
	c0,0.8-0.3,1.1-1.1,1.1H114z M116.4,145c0.4,0,0.6-0.2,0.6-0.6v-1.7c0-0.4-0.2-0.6-0.6-0.6h-2.1c-0.4,0-0.6,0.1-0.6,0.6v1.7
	c0,0.4,0.2,0.6,0.6,0.6H116.4z"/>
<path class="st1" d="M126.1,141.5h0.8v4.2h-0.6l-3.4-3.2v3.2H122v-4.2h0.7l3.4,3.1L126.1,141.5z"/>
<path class="st1" d="M131.1,144.5h0.8v0.2c0,0.3,0.1,0.4,0.4,0.4h2.4c0.3,0,0.4-0.1,0.4-0.4v-0.3c0-0.3-0.1-0.4-0.4-0.4l-2.6-0.2
	c-0.6,0-0.9-0.3-0.9-0.9v-0.6c-0.1-0.4,0.2-0.8,0.6-0.9c0.1,0,0.2,0,0.2,0h2.9c0.4-0.1,0.8,0.2,0.9,0.6c0,0.1,0,0.2,0,0.2v0.3H135
	v-0.1c0-0.3-0.1-0.4-0.4-0.4h-2.2c-0.3,0-0.4,0.1-0.4,0.4v0.2c0,0.3,0.1,0.4,0.4,0.4l2.6,0.2c0.6,0,0.9,0.3,0.9,0.9v0.7
	c0.1,0.4-0.2,0.8-0.6,0.9c-0.1,0-0.2,0-0.2,0h-3c-0.4,0.1-0.8-0.2-0.9-0.6c0-0.1,0-0.2,0-0.2L131.1,144.5z"/>
<path class="st1" d="M144.7,141.5v0.7h-1.9v3.5H142v-3.5h-1.9v-0.7H144.7z"/>
<path class="st1" d="M153.7,145.7h-0.9l-1.2-1.6h-1.8v1.6H149v-4.2h3.6c0.7,0,1,0.3,1,1v0.6c0,0.7-0.3,1-1,1h-0.1L153.7,145.7z
	 M149.7,142.1v1.5h2.5c0.4,0,0.5-0.1,0.5-0.5v-0.4c0-0.4-0.1-0.5-0.5-0.5L149.7,142.1z"/>
<path class="st1" d="M159.1,145.7c-0.8,0-1.1-0.3-1.1-1.1v-3.1h0.8v2.9c0,0.4,0.2,0.6,0.6,0.6h1.9c0.4,0,0.6-0.1,0.6-0.6v-2.9h0.8
	v3.1c0,0.8-0.4,1.1-1.1,1.1H159.1z"/>
<path class="st1" d="M168,145.7c-0.8,0-1.1-0.3-1.1-1.1v-2c0-0.8,0.4-1.1,1.1-1.1h2.5c0.8,0,1.1,0.3,1.1,1.1v0.4h-0.8v-0.3
	c0-0.4-0.2-0.6-0.6-0.6h-2c-0.4,0-0.6,0.2-0.6,0.6v1.7c0,0.4,0.2,0.6,0.6,0.6h2c0.4,0,0.6-0.2,0.6-0.6v-0.4h0.8v0.5
	c0,0.8-0.4,1.1-1.1,1.1L168,145.7z"/>
<path class="st1" d="M180.5,141.5v0.7h-1.9v3.5h-0.8v-3.5h-1.9v-0.7H180.5z"/>
<path class="st1" d="M184.8,141.5h0.8v4.2h-0.8V141.5z"/>
<path class="st1" d="M190.9,145.7c-0.8,0-1.1-0.3-1.1-1.1v-2c0-0.8,0.3-1.1,1.1-1.1h2.6c0.8,0,1.1,0.3,1.1,1.1v2
	c0,0.8-0.4,1.1-1.1,1.1H190.9z M193.3,145c0.4,0,0.6-0.2,0.6-0.6v-1.7c0-0.4-0.2-0.6-0.6-0.6h-2.1c-0.4,0-0.6,0.1-0.6,0.6v1.7
	c0,0.4,0.2,0.6,0.6,0.6H193.3z"/>
<path class="st1" d="M203,141.5h0.8v4.2h-0.6l-3.4-3.2v3.2h-0.8v-4.2h0.7l3.4,3.1V141.5z"/>
</svg>
